<svg width="78" height="77" viewBox="0 0 78 77" fill="none" xmlns="http://www.w3.org/2000/svg">
<g clip-path="url(#clip0_42_284)">
<path d="M68.6863 38.724L60.3454 25.8436C60.0294 25.3534 59.5953 24.9506 59.083 24.672C58.5707 24.3934 57.9966 24.248 57.4135 24.2491H20.6124C20.0301 24.248 19.4568 24.393 18.945 24.6709C18.4332 24.9487 17.9993 25.3505 17.6831 25.8395L9.31621 38.7216C8.4612 40.0378 8.59327 41.7757 9.6374 42.9476L36.3902 72.9823C36.718 73.3501 37.1198 73.6444 37.5692 73.846C38.0187 74.0475 38.5057 74.1519 38.9983 74.1521C39.491 74.1519 39.9781 74.0476 40.4276 73.846C40.8771 73.6445 41.279 73.3502 41.6068 72.9825L68.3626 42.9459C69.4052 41.7754 69.5383 40.0393 68.6863 38.724ZM55.7238 27.2438L48.7091 38.0909L41.6902 27.2438H55.7238ZM45.957 39.3505H32.0396L38.9983 28.5964L45.957 39.3505ZM36.3065 27.2441L29.3069 38.0614L22.3097 27.2441H36.3065ZM19.5409 28.4772L26.5742 39.3505H12.4787L19.5409 28.4772ZM13.1112 42.3453H28.1818L36.1503 68.2106L13.1112 42.3453ZM38.9983 67.2834L31.3154 42.3453H46.6813L38.9983 67.2834ZM41.8462 68.2115L49.8151 42.3455H64.887L41.8462 68.2115ZM51.4612 39.3505L58.488 28.4847L65.5241 39.3505H51.4612ZM5.20856 39.3505H2.1639C1.33704 39.3505 0.666504 40.0209 0.666504 40.8479C0.666504 41.6749 1.33704 42.3453 2.1639 42.3453H5.20856C6.03542 42.3453 6.70595 41.6749 6.70595 40.8479C6.70595 40.0209 6.03542 39.3505 5.20856 39.3505ZM75.8358 39.3505H72.7911C71.9643 39.3505 71.2937 40.0209 71.2937 40.8479C71.2937 41.6749 71.9643 42.3453 72.7911 42.3453H75.8358C76.6626 42.3453 77.3332 41.6749 77.3332 40.8479C77.3332 40.0209 76.6626 39.3505 75.8358 39.3505ZM66.1246 13.75C65.5397 13.1653 64.5918 13.1653 64.0068 13.75L59.0329 18.7239C58.4482 19.3086 58.4482 20.2568 59.0329 20.8415C59.1718 20.9808 59.3369 21.0912 59.5186 21.1665C59.7004 21.2417 59.8952 21.2803 60.0919 21.2801C60.2885 21.2803 60.4833 21.2417 60.665 21.1665C60.8467 21.0912 61.0118 20.9808 61.1507 20.8415L66.1246 15.8676C66.7093 15.2829 66.7093 14.3349 66.1246 13.75ZM19.0315 18.6972L14.0577 13.7232C13.4731 13.1385 12.5253 13.1385 11.9399 13.7232C11.3552 14.3079 11.3552 15.2561 11.9399 15.8408L16.9138 20.8147C17.0527 20.954 17.2178 21.0644 17.3995 21.1397C17.5812 21.2149 17.776 21.2536 17.9727 21.2533C18.1693 21.2535 18.3641 21.2149 18.5458 21.1396C18.7275 21.0644 18.8926 20.9539 19.0315 20.8147C19.6162 20.2301 19.6162 19.2818 19.0315 18.6972ZM39.0379 2.51459C38.211 2.51459 37.5405 3.18497 37.5405 4.01198V13.7702C37.5405 14.5972 38.2109 15.2676 39.0379 15.2676C39.8647 15.2676 40.5353 14.5972 40.5353 13.7702V4.01198C40.5353 3.18512 39.8647 2.51459 39.0379 2.51459ZM40.0958 17.7771C39.8174 17.4986 39.4311 17.3384 39.0373 17.3384C38.6435 17.3384 38.2571 17.4986 37.9786 17.7771C37.6988 18.0585 37.5412 18.4389 37.5399 18.8358C37.5399 19.2311 37.7 19.6159 37.9786 19.8944C38.2571 20.1744 38.6435 20.3331 39.0373 20.3331C39.4311 20.3331 39.8174 20.1744 40.0958 19.8944C40.3758 19.6159 40.5347 19.2296 40.5347 18.8358C40.5347 18.4419 40.3758 18.0558 40.0958 17.7771Z" fill="#BE1FBC"/>
</g>
<defs>
<clipPath id="clip0_42_284">
<rect width="76.6667" height="76.6667" fill="white" transform="translate(0.666504)"/>
</clipPath>
</defs>
</svg>
