<svg width="79" height="79" viewBox="0 0 79 79" fill="none" xmlns="http://www.w3.org/2000/svg">
<g clip-path="url(#clip0_42_293)">
<path d="M78.1495 37.4742L73.4039 33.0723C73.0803 32.7722 72.8322 32.4001 72.6796 31.986L68.9528 21.8662C68.4198 20.44 67.4649 19.2101 66.2152 18.3404C64.9655 17.4707 63.4804 17.0026 61.9579 16.9983H56.3113V15.4142C56.3113 14.733 56.0407 14.0796 55.559 13.5979C55.0773 13.1162 54.4239 12.8456 53.7427 12.8456H19.6176C19.1099 12.8396 18.6198 13.0319 18.2516 13.3816C17.8834 13.7312 17.6661 14.2107 17.6458 14.7181C17.6411 14.9717 17.687 15.2238 17.7807 15.4595C17.8745 15.6952 18.0143 15.9098 18.192 16.0908C18.3697 16.2719 18.5817 16.4157 18.8156 16.5139C19.0495 16.6121 19.3006 16.6626 19.5543 16.6627H52.4941V33.2239C52.4941 33.9051 52.7647 34.5585 53.2464 35.0402C53.7281 35.5219 54.3815 35.7925 55.0627 35.7925H70.5752L75.1823 39.9387V55.4051H71.0055C70.5896 53.5851 69.5682 51.9602 68.1084 50.7964C66.6486 49.6326 64.837 48.9988 62.9701 48.9988C61.1032 48.9988 59.2916 49.6326 57.8318 50.7964C56.372 51.9602 55.3506 53.5851 54.9347 55.4051H42.082C41.6661 53.5851 40.6447 51.9602 39.1849 50.7964C37.7251 49.6326 35.9135 48.9988 34.0466 48.9988C32.1797 48.9988 30.368 49.6326 28.9083 50.7964C27.4485 51.9602 26.4271 53.5851 26.0111 55.4051H19.6175C19.1097 55.3991 18.6196 55.5914 18.2514 55.9412C17.8832 56.291 17.6659 56.7706 17.6458 57.278C17.6411 57.5317 17.687 57.7837 17.7807 58.0194C17.8745 58.2551 18.0143 58.4697 18.192 58.6507C18.3697 58.8318 18.5817 58.9756 18.8156 59.0737C19.0495 59.1719 19.3006 59.2225 19.5543 59.2225H26.0433C26.4853 61.0108 27.5137 62.5996 28.9642 63.7352C30.4148 64.8708 32.2039 65.4878 34.046 65.4878C35.8882 65.4878 37.6773 64.8708 39.1279 63.7352C40.5784 62.5996 41.6067 61.0108 42.0488 59.2225H54.9671C55.4092 61.0108 56.4375 62.5996 57.888 63.7352C59.3386 64.8708 61.1277 65.4878 62.9699 65.4878C64.812 65.4878 66.6012 64.8708 68.0517 63.7352C69.5022 62.5996 70.5306 61.0108 70.9726 59.2225H76.431C77.1122 59.2225 77.7656 58.9518 78.2473 58.4702C78.729 57.9885 78.9996 57.3352 78.9997 56.654V39.3833C78.9994 39.0233 78.9236 38.6674 78.7771 38.3386C78.6307 38.0097 78.4168 37.7153 78.1495 37.4742ZM56.3113 31.9759V20.8152H61.9579C62.7013 20.8173 63.4264 21.0458 64.0366 21.4705C64.6467 21.8951 65.113 22.4956 65.3732 23.192L68.6266 31.9759H56.3113ZM34.0461 61.6702C33.1705 61.6702 32.3145 61.4106 31.5865 60.9241C30.8584 60.4376 30.291 59.7462 29.9559 58.9372C29.6208 58.1282 29.5331 57.238 29.704 56.3792C29.8748 55.5204 30.2965 54.7316 30.9157 54.1124C31.5348 53.4933 32.3237 53.0716 33.1825 52.9008C34.0413 52.73 34.9315 52.8177 35.7404 53.1528C36.5494 53.4879 37.2408 54.0554 37.7273 54.7835C38.2137 55.5116 38.4734 56.3675 38.4733 57.2432C38.472 58.4169 38.0051 59.5422 37.1751 60.3721C36.3452 61.2021 35.2199 61.6689 34.0461 61.6702ZM62.9699 61.6702C62.0943 61.6702 61.2383 61.4106 60.5103 60.9242C59.7822 60.4377 59.2147 59.7463 58.8796 58.9373C58.5445 58.1283 58.4568 57.2381 58.6276 56.3793C58.7985 55.5205 59.2201 54.7317 59.8393 54.1125C60.4584 53.4933 61.2473 53.0717 62.1061 52.9009C62.9649 52.73 63.8551 52.8177 64.6641 53.1528C65.473 53.4879 66.1645 54.0554 66.6509 54.7835C67.1374 55.5115 67.397 56.3675 67.397 57.2432C67.3957 58.4169 66.9288 59.5421 66.0989 60.3721C65.2689 61.202 64.1437 61.6689 62.9699 61.6702Z" fill="#BE1FBC"/>
<path d="M11.4041 27.3402H33.0489C33.5552 27.3402 34.0407 27.1391 34.3986 26.7811C34.7566 26.4231 34.9577 25.9376 34.9577 25.4314C34.9577 24.9252 34.7566 24.4397 34.3986 24.0817C34.0407 23.7237 33.5552 23.5226 33.0489 23.5226H11.4041C10.8979 23.5226 10.4124 23.7237 10.0544 24.0817C9.69648 24.4397 9.49537 24.9252 9.49537 25.4314C9.49537 25.9376 9.69648 26.4231 10.0544 26.7811C10.4124 27.1391 10.8979 27.3402 11.4041 27.3402ZM34.9577 36.0341C34.9577 35.5279 34.7566 35.0424 34.3986 34.6844C34.0407 34.3264 33.5552 34.1253 33.0489 34.1253H2.57527C2.32318 34.1231 2.07314 34.1708 1.83958 34.2657C1.60603 34.3606 1.39359 34.5008 1.21453 34.6783C1.03548 34.8558 0.893345 35.0669 0.796349 35.2996C0.699354 35.5323 0.649414 35.7819 0.649414 36.034C0.649414 36.2861 0.699354 36.5357 0.796349 36.7684C0.893345 37.0011 1.03548 37.2123 1.21453 37.3898C1.39359 37.5672 1.60603 37.7074 1.83958 37.8024C2.07314 37.8973 2.32318 37.945 2.57527 37.9427H33.0489C33.5551 37.9427 34.0406 37.7416 34.3986 37.3837C34.7565 37.0258 34.9576 36.5403 34.9577 36.0341ZM22.8719 46.6368C22.8719 46.3861 22.8225 46.138 22.7266 45.9064C22.6307 45.6748 22.4901 45.4644 22.3128 45.2872C22.1356 45.11 21.9252 44.9694 21.6936 44.8735C21.4621 44.7775 21.2139 44.7282 20.9633 44.7282H7.69692C7.19366 44.7327 6.71255 44.9358 6.35828 45.2932C6.00401 45.6507 5.80525 46.1336 5.80525 46.6369C5.80525 47.1401 6.00401 47.6231 6.35828 47.9805C6.71255 48.338 7.19366 48.541 7.69692 48.5456H20.9633C21.4695 48.5455 21.9549 48.3444 22.3129 47.9864C22.6708 47.6285 22.8719 47.143 22.8719 46.6368Z" fill="#BE1FBC"/>
</g>
<defs>
<clipPath id="clip0_42_293">
<rect width="78.3333" height="78.3333" fill="white" transform="translate(0.666504)"/>
</clipPath>
</defs>
</svg>
