<svg width="68" height="67" viewBox="0 0 68 67" fill="none" xmlns="http://www.w3.org/2000/svg">
<g clip-path="url(#clip0_295_133)">
<path d="M22.1457 39.063H22.1488C22.1514 39.063 22.154 39.0625 22.1565 39.0625H57.5676C57.9919 39.0624 58.4048 38.9241 58.7436 38.6685C59.0824 38.413 59.3288 38.054 59.4454 37.646L67.2579 10.3022C67.3409 10.0116 67.3554 9.70567 67.3002 9.40852C67.2449 9.11136 67.1215 8.83108 66.9396 8.58971C66.7575 8.34833 66.5219 8.15251 66.2512 8.01764C65.9806 7.88278 65.6824 7.81255 65.3801 7.8125H17.6414L16.2453 1.52943C16.1488 1.09561 15.9073 0.707657 15.5606 0.4296C15.2139 0.151544 14.7828 6.00219e-06 14.3384 0L2.61963 0C1.54085 0 0.666504 0.874349 0.666504 1.95312C0.666504 3.0319 1.54085 3.90625 2.61963 3.90625H12.7718C13.019 5.01953 19.4531 33.9737 19.8234 35.6393C17.7478 36.5417 16.2915 38.6115 16.2915 41.0156C16.2915 44.2464 18.9202 46.875 22.1509 46.875H57.5676C58.6463 46.875 59.5207 46.0006 59.5207 44.9219C59.5207 43.8431 58.6463 42.9688 57.5676 42.9688H22.1509C21.0741 42.9688 20.1978 42.0924 20.1978 41.0156C20.1978 39.9404 21.0711 39.0655 22.1457 39.063ZM62.7907 11.7188L56.0941 35.1562H23.7175L18.5092 11.7188H62.7907ZM20.1978 52.7344C20.1978 55.9652 22.8264 58.5937 26.0571 58.5937C29.2879 58.5937 31.9165 55.9651 31.9165 52.7344C31.9165 49.5036 29.2879 46.875 26.0571 46.875C22.8264 46.875 20.1978 49.5036 20.1978 52.7344ZM26.0571 50.7812C27.134 50.7812 28.0103 51.6576 28.0103 52.7344C28.0103 53.8112 27.134 54.6875 26.0571 54.6875C24.9803 54.6875 24.104 53.8112 24.104 52.7344C24.104 51.6576 24.9803 50.7812 26.0571 50.7812ZM47.8019 52.7344C47.8019 55.9652 50.4306 58.5937 53.6613 58.5937C56.892 58.5937 59.5207 55.9651 59.5207 52.7344C59.5207 49.5036 56.892 46.875 53.6613 46.875C50.4306 46.875 47.8019 49.5036 47.8019 52.7344ZM53.6613 50.7812C54.7381 50.7812 55.6144 51.6576 55.6144 52.7344C55.6144 53.8112 54.7381 54.6875 53.6613 54.6875C52.5845 54.6875 51.7082 53.8112 51.7082 52.7344C51.7082 51.6576 52.5845 50.7812 53.6613 50.7812Z" fill="#BE1FBC"/>
</g>
<defs>
<clipPath id="clip0_295_133">
<rect width="66.6667" height="66.6667" fill="white" transform="translate(0.666504)"/>
</clipPath>
</defs>
</svg>
