<svg width="68" height="67" viewBox="0 0 68 67" fill="none" xmlns="http://www.w3.org/2000/svg">
<g clip-path="url(#clip0_42_265)">
<path d="M65.2498 41.6662C64.0998 41.6662 63.1665 42.5995 63.1665 43.7495V58.3328H4.83317V33.3328H27.7498C28.8998 33.3328 29.8332 32.3995 29.8332 31.2495C29.8332 30.0995 28.8998 29.1662 27.7498 29.1662H4.83317V20.8328H27.7498C28.8998 20.8328 29.8332 19.8995 29.8332 18.7495C29.8332 17.5995 28.8998 16.6662 27.7498 16.6662H4.83317C2.53317 16.6662 0.666504 18.5328 0.666504 20.8328V58.3328C0.666504 60.6328 2.53317 62.4995 4.83317 62.4995H63.1665C65.4665 62.4995 67.3332 60.6328 67.3332 58.3328V43.7495C67.3332 42.5995 66.3998 41.6662 65.2498 41.6662Z" fill="#BE1FBC"/>
<path d="M19.4167 41.6662H11.0833C9.93333 41.6662 9 42.5995 9 43.7495C9 44.8995 9.93333 45.8328 11.0833 45.8328H19.4167C20.5667 45.8328 21.5 44.8995 21.5 43.7495C21.5 42.5995 20.5667 41.6662 19.4167 41.6662ZM66.0708 10.5828L51.4875 4.33283C51.2269 4.22351 50.9472 4.16721 50.6646 4.16721C50.382 4.16721 50.1022 4.22351 49.8417 4.33283L35.2583 10.5828C34.8845 10.7448 34.5662 11.0125 34.3426 11.353C34.119 11.6936 33.9999 12.0921 34 12.4995V20.8328C34 32.2953 38.2375 38.9953 49.6292 45.5578C49.95 45.7412 50.3083 45.8328 50.6667 45.8328C51.025 45.8328 51.3833 45.7412 51.7042 45.5578C63.0958 39.012 67.3333 32.312 67.3333 20.8328V12.4995C67.3333 11.6662 66.8375 10.912 66.0708 10.5828ZM63.1667 20.8328C63.1667 30.4537 59.9833 35.7495 50.6667 41.3328C41.35 35.737 38.1667 30.4412 38.1667 20.8328V13.8745L50.6667 8.51616L63.1667 13.8745V20.8328Z" fill="#BE1FBC"/>
<path d="M58.2205 17.1203C57.3247 16.412 56.0164 16.5495 55.2914 17.4453L48.7414 25.637L46.1497 21.762C45.5039 20.8037 44.208 20.5495 43.2622 21.1828C42.308 21.8203 42.0455 23.1162 42.683 24.0703L46.8497 30.3203C47.2205 30.8745 47.8289 31.2162 48.4955 31.2495H48.583C49.2122 31.2495 49.8122 30.9662 50.2122 30.4662L58.5455 20.0495C59.2622 19.1495 59.1205 17.8412 58.2205 17.1203Z" fill="#BE1FBC"/>
</g>
<defs>
<clipPath id="clip0_42_265">
<rect width="66.6667" height="66.6667" fill="white" transform="translate(0.666504)"/>
</clipPath>
</defs>
</svg>
